<?xml version="1.0" standalone="no"?>
<!DOCTYPE svg PUBLIC "-//W3C//DTD SVG 20010904//EN"
 "http://www.w3.org/TR/2001/REC-SVG-20010904/DTD/svg10.dtd">
<svg version="1.0" xmlns="http://www.w3.org/2000/svg"
 width="300.000000pt" height="300.000000pt" viewBox="0 0 300.000000 300.000000"
 preserveAspectRatio="xMidYMid meet">
<metadata>
Created by potrace 1.10, written by Peter Selinger 2001-2011
</metadata>
<g transform="translate(0.000000,300.000000) scale(0.100000,-0.100000)"
fill="#000000" stroke="none">
<path d="M185 2931 c-22 -10 -54 -34 -72 -52 -67 -70 -63 -11 -63 -1052 l0
-943 26 -52 c14 -29 41 -64 60 -78 68 -52 93 -54 559 -54 l430 1 3 -141 3
-140 -70 0 c-38 0 -82 -5 -98 -11 -35 -13 -80 -55 -100 -94 -21 -39 -30 -213
-14 -243 l12 -22 639 0 639 0 12 22 c16 30 7 204 -14 243 -20 39 -65 81 -100
94 -16 6 -60 11 -98 11 l-70 0 3 140 3 141 430 -1 c466 0 491 2 559 54 19 14
46 49 60 78 l26 52 0 945 c0 900 -1 948 -19 986 -10 22 -34 54 -52 72 -71 67
24 63 -1381 63 -1219 0 -1275 -1 -1313 -19z m2603 -91 c18 -11 41 -34 52 -52
20 -32 20 -53 20 -956 0 -1024 3 -970 -65 -1012 -32 -20 -47 -20 -1295 -20
-1248 0 -1263 0 -1295 20 -68 42 -65 -12 -65 1012 0 903 0 924 20 956 11 18
34 41 52 52 32 20 53 20 1288 20 1235 0 1256 0 1288 -20z m-935 -2125 l-27
-34 -22 32 c-12 18 -20 34 -19 37 2 3 24 4 49 2 l45 -4 -26 -33z m-654 3 c-12
-18 -23 -34 -24 -35 0 -1 -13 13 -28 32 l-28 35 51 0 51 0 -22 -32z m581 -155
l0 -143 -280 0 -280 0 0 143 0 142 280 0 280 0 0 -142z m-563 -189 c-3 -3 -26
-4 -52 -2 l-48 3 27 32 28 33 25 -31 c14 -16 23 -32 20 -35z m619 -2 c-26 -2
-50 -1 -53 2 -3 3 5 18 18 35 l24 30 30 -32 29 -32 -48 -3z m195 -71 c26 -27
29 -36 29 -95 l0 -66 -560 0 -560 0 0 66 c0 59 3 68 29 95 l29 29 502 0 502 0
29 -29z m-1091 -203 c0 -5 -10 -8 -22 -6 -17 2 -24 11 -26 33 l-4 30 26 -24
c14 -14 26 -29 26 -33z m1166 6 c-5 -14 -46 -20 -46 -7 0 4 10 18 23 31 18 20
23 21 25 7 2 -9 1 -23 -2 -31z"/>
<path d="M250 2750 c-20 -20 -20 -30 -18 -836 3 -711 5 -816 18 -824 20 -13
2480 -13 2500 0 13 8 15 113 18 824 2 806 2 816 -18 836 -20 20 -30 20 -1250
20 -1220 0 -1230 0 -1250 -20z m71 -48 c-5 -10 -17 -24 -25 -32 -14 -11 -16
-8 -16 19 0 27 4 31 25 31 22 0 24 -3 16 -18z m2397 -11 c4 -29 -15 -25 -36 8
-15 22 -15 23 9 19 16 -2 25 -10 27 -27z m-48 -771 l0 -750 -1170 0 -1170 0 0
750 0 750 1170 0 1170 0 0 -750z m-2340 -795 c0 -3 -10 -5 -22 -3 -18 2 -24
11 -26 37 l-4 34 26 -30 c14 -17 26 -34 26 -38z m2386 9 c-5 -14 -46 -20 -46
-7 0 4 10 18 23 31 18 20 23 21 25 7 2 -9 1 -23 -2 -31z"/>
<path d="M437 2562 c-15 -17 -17 -73 -17 -595 0 -510 2 -577 16 -591 14 -14
92 -16 716 -16 l700 0 32 -27 c65 -55 97 -63 271 -63 147 0 164 2 210 24 125
58 188 189 156 322 -17 68 -57 122 -126 169 -93 64 -95 69 -95 288 0 174 -1
188 -20 207 -11 11 -33 20 -50 20 l-30 0 0 130 c0 118 -2 130 -19 140 -13 7
-304 10 -874 10 -815 0 -855 -1 -870 -18z m60 -62 c-20 -24 -36 -23 -37 2 0
15 31 37 45 32 12 -5 11 -11 -8 -34z m1663 -9 l-1 -26 -25 29 c-19 22 -22 31
-13 37 19 11 39 -9 39 -40z m-50 -102 c0 -96 0 -96 -24 -92 -13 3 -33 0 -45
-6 -20 -11 -21 -19 -21 -189 0 -97 -5 -194 -10 -214 -10 -36 -31 -57 -120
-121 -63 -46 -104 -128 -105 -210 0 -34 4 -72 8 -84 l8 -23 -643 0 -643 0 2
517 c2 285 3 518 3 518 0 0 358 0 795 0 l795 0 0 -96z m115 -133 c20 -5 25
-13 25 -38 l0 -31 -21 27 c-30 38 -101 37 -141 -1 l-28 -27 0 26 c0 19 9 32
35 46 19 12 40 30 46 40 12 19 13 19 36 -8 12 -15 34 -31 48 -34z m-22 -222
c2 -151 4 -173 24 -209 24 -45 62 -83 111 -111 17 -10 32 -21 32 -24 0 -3 -97
-5 -215 -5 -118 0 -215 3 -215 6 0 4 14 12 30 19 46 19 107 86 124 137 12 35
16 87 16 202 l0 156 45 -1 45 -1 3 -169z m239 -345 c15 -19 31 -50 34 -69 l7
-35 -25 23 c-14 12 -41 25 -61 29 -35 5 -36 7 -22 26 21 30 19 47 -12 80 l-28
30 40 -25 c21 -14 52 -40 67 -59z m-501 45 c-26 -33 -26 -42 0 -70 l21 -22
-43 -7 c-25 -4 -51 -17 -66 -33 -20 -21 -23 -22 -23 -7 0 36 43 107 83 136 49
36 54 36 28 3z m491 -149 c24 -32 -8 -130 -58 -177 -45 -41 -75 -48 -220 -48
-142 0 -171 7 -222 54 -42 37 -68 113 -56 159 5 22 7 22 277 22 170 0 275 -4
279 -10z m-1912 -180 c0 -3 -10 -5 -21 -3 -27 4 -44 30 -36 52 6 15 10 13 32
-12 14 -17 25 -33 25 -37z m1357 15 l31 -50 -28 15 c-16 8 -43 15 -60 15 -16
0 -30 3 -30 6 0 8 44 63 50 63 3 0 19 -22 37 -49z"/>
<path d="M1220 2345 l0 -45 350 0 350 0 0 45 0 45 -350 0 -350 0 0 -45z"/>
<path d="M971 2278 c-59 -30 -84 -77 -77 -140 5 -44 3 -48 -40 -91 -40 -41
-48 -44 -74 -37 -67 19 -153 -36 -166 -107 -9 -47 11 -107 42 -132 104 -82
248 -4 230 124 -5 41 -3 46 38 87 43 42 44 43 111 42 l67 -1 132 -132 133
-133 -1 -61 c-1 -47 4 -68 19 -89 29 -39 67 -58 115 -58 133 0 189 166 84 249
-33 26 -89 37 -118 23 -21 -9 -35 2 -164 131 l-140 142 4 50 c11 113 -95 185
-195 133z m99 -93 c15 -18 5 -64 -15 -72 -45 -17 -87 26 -65 67 13 24 61 27
80 5z m55 -89 c3 -15 29 -53 58 -84 l52 -56 -53 46 c-29 26 -68 53 -87 59
l-34 13 27 31 c15 17 28 29 29 26 1 -3 4 -19 8 -35z m-157 -34 c-18 -8 -41
-21 -50 -29 -23 -21 -23 -11 2 29 11 18 20 42 20 52 0 17 4 16 31 -10 l30 -29
-33 -13z m-103 -88 c-14 -20 -25 -46 -25 -57 0 -19 -2 -18 -30 8 -31 30 -31
45 -1 45 11 0 29 9 42 20 36 30 41 24 14 -16z m580 -194 l26 0 -28 -35 c-26
-33 -28 -34 -31 -13 -6 34 -29 67 -106 148 l-71 74 92 -87 c67 -63 99 -87 118
-87z m-654 119 c18 -34 -3 -69 -41 -69 -22 0 -33 6 -41 24 -16 35 3 66 41 66
20 0 33 -7 41 -21z m739 -179 c11 -11 20 -25 20 -32 0 -18 -31 -48 -51 -48
-21 0 -49 26 -49 46 0 16 35 54 50 54 6 0 19 -9 30 -20z"/>
<path d="M1310 2155 l0 -45 305 0 305 0 0 45 0 45 -305 0 -305 0 0 -45z"/>
<path d="M1409 2016 c-2 -3 -3 -25 -1 -50 l4 -46 254 0 254 0 0 50 0 50 -253
0 c-140 0 -256 -2 -258 -4z"/>
<path d="M2480 2530 l0 -50 50 0 50 0 0 50 0 50 -50 0 -50 0 0 -50z"/>
<path d="M2300 2390 l0 -50 45 0 45 0 0 50 0 50 -45 0 -45 0 0 -50z"/>
<path d="M2440 2203 l0 -48 45 0 45 0 0 48 0 47 -45 0 -45 0 0 -47z"/>
<path d="M2484 981 c-2 -2 -4 -24 -4 -48 l0 -43 50 0 50 0 0 48 0 48 -46 -1
c-25 0 -47 -2 -50 -4z"/>
<path d="M2670 938 l0 -48 51 0 50 0 -3 46 -3 46 -47 2 -48 2 0 -48z"/>
</g>
</svg>
